# xmcd
#
# Track frame offsets:
#	300
#	15990
#	32562
#	52215
#	69193
#	83077
#	101052
#	118448
#	132071
#	148981
#	164685
#	180525
#
# Disc length: 2620 seconds
#
# Revision: 1
# Processed by: cddbd v1.5.2PL0 Copyright (c) Steve Scherf et al.
# Submitted via: audiograbber 1.83.01
#
DISCID=a90a380c
DTITLE=Various Artist - Street Beats 701 CD2
DYEAR=1900
DGENRE=R&B
TTITLE0=Fatman Scoop - Be Faithful (Explicit)
TTITLE1=Juelz Santana - Dipset (Santana's Town) Ft Cam'ron
TTITLE2=Nodesha - Get It While It's Hot (AB Experience Remix)
TTITLE3=Cassius Henry Ft Freeway - The One
TTITLE4=Kelis - Milkshake
TTITLE5=Nelly, P Diddy and Murphy Lee - Shake Ya Tailfeather
TTITLE6=Jamelia - Ayo Superstar (JD Remix)
TTITLE7=Will.i.am - Ride Ride
TTITLE8=Exyt - Weekend
TTITLE9=Dobie - The Ride Ft Lain
TTITLE10=Alison-Naomi - Amazing Love
TTITLE11=Rupee - Tempted To Touch
EXTD=
EXTT0=
EXTT1=
EXTT2=
EXTT3=
EXTT4=
EXTT5=
EXTT6=
EXTT7=
EXTT8=
EXTT9=
EXTT10=
EXTT11=
PLAYORDER=
